<svg id="Layer_1" data-name="Layer 1" xmlns="http://www.w3.org/2000/svg" viewBox="0 0 32 32"><defs><style>.cls-1{fill:#10182a;}.cls-2{fill:#fff;}.cls-3{fill:#e26d33;}</style></defs><circle class="cls-1" cx="16" cy="16" r="16"/><path class="cls-2" d="M27.92,22.39c-.37-.63-1.54-2.51-1.54-2.51V8c0-.88-.52-1-1.24-1L7,6.92c-.92,0-1.23.23-1.23.83s0,12,0,12L4.21,22c-.58.83-.27.93.31.95,1.57,0,19.89,0,21.88,0C28.19,22.94,28.3,23,27.92,22.39ZM25,8.22V18.53L7.2,18.66,7.14,8.22Zm-6.31,13v.54H13.48l0-.57-7.82,0,.66-1H25.88l.44,1Z" transform="translate(0 0)"/><polygon class="cls-2" points="8.04 13.41 8.04 13.72 9.46 14.59 9.46 14.15 8.68 13.58 9.46 12.99 9.46 12.53 9.44 12.54 8.04 13.41"/><polygon class="cls-2" points="22.89 12.51 22.85 12.51 22.84 12.96 23.61 13.53 22.8 14.13 22.8 14.57 24.12 13.75 24.14 13.4 22.89 12.51"/><polygon class="cls-2" points="10.63 12.06 10.06 12.06 10.06 14.81 11.92 14.81 11.92 14.29 10.64 14.3 10.63 12.06"/><rect class="cls-2" x="12.34" y="12.07" width="0.57" height="2.74" transform="translate(-0.05 0.05) rotate(-0.22)"/><polygon class="cls-2" points="15.38 12.56 15.39 12.07 13.42 12.07 13.42 12.59 14.67 12.59 13.38 14.35 13.38 14.81 15.43 14.81 15.43 14.3 14.12 14.31 15.38 12.56"/><path class="cls-2" d="M17.34,12.07h-.66l-1,2.74h.61l.19-.58h1l.2.58h.61Zm-.68,1.67L17,12.69l.37,1.05Z" transform="translate(0 0)"/><polygon class="cls-2" points="20.33 12.06 20.33 13.89 19.28 12.07 18.62 12.07 18.62 14.81 19.21 14.81 19.21 13.04 20.24 14.81 20.91 14.81 20.9 12.06 20.33 12.06"/><polygon class="cls-3" points="21.23 14.81 21.65 14.81 22.7 12.06 22.25 12.06 21.23 14.81"/></svg>